<?xml version="1.0" encoding="UTF-8" standalone="no"?>
<!-- Created with Inkscape (http://www.inkscape.org/) -->

<svg
   width="218.54555mm"
   height="153.30396mm"
   viewBox="0 0 218.54555 153.30395"
   version="1.1"
   id="svg1"
   xml:space="preserve"
   sodipodi:docname="bg.svg"
   inkscape:version="1.3.2 (091e20ef0f, 2023-11-25, custom)"
   xmlns:inkscape="http://www.inkscape.org/namespaces/inkscape"
   xmlns:sodipodi="http://sodipodi.sourceforge.net/DTD/sodipodi-0.dtd"
   xmlns="http://www.w3.org/2000/svg"
   xmlns:svg="http://www.w3.org/2000/svg"><sodipodi:namedview
     id="namedview1"
     pagecolor="#000000"
     bordercolor="#000000"
     borderopacity="0.25"
     inkscape:showpageshadow="2"
     inkscape:pageopacity="0.0"
     inkscape:pagecheckerboard="0"
     inkscape:deskcolor="#d1d1d1"
     inkscape:document-units="mm"
     inkscape:zoom="2"
     inkscape:cx="334.25"
     inkscape:cy="284.25"
     inkscape:window-width="2540"
     inkscape:window-height="1399"
     inkscape:window-x="10"
     inkscape:window-y="31"
     inkscape:window-maximized="1"
     inkscape:current-layer="layer3" /><defs
     id="defs1" /><g
     id="layer3"
     transform="translate(-42.662448,-71.847761)"><g
       id="g5"
       style="display:inline"><path
         style="fill:none;fill-opacity:1;stroke:#ffffff;stroke-width:1.065;stroke-dasharray:none;stroke-opacity:1"
         d="m 43.517946,148.58006 c 40.309405,0 42.810137,-0.15803 42.810137,-0.15803 z"
         id="path5" /><g
         id="g8"
         style="display:inline"
         transform="translate(1.1041667e-6)"><path
           id="rect8"
           style="display:inline;fill:#ffffff;fill-opacity:1;stroke:none;stroke-width:1.065"
           d="M 116.91579,71.847811 C 96.175497,84.398468 82.617114,114.70766 82.617113,148.49998 c 2e-6,33.79198 13.558208,64.10077 34.298167,76.65165 h 2.08979 l 5.2e-4,-0.001 C 97.883639,213.49166 83.673898,182.85318 83.673896,148.49998 c 0,-34.3532 14.209742,-64.991684 35.331694,-76.650619 l -0.001,-0.0016 z"
           transform="translate(1.1041667e-6)" /><path
           id="rect8-7"
           style="display:inline;fill:#ffffff;fill-opacity:1;stroke:none;stroke-width:1.065"
           d="M 76.961124,71.847886 C 56.220831,84.398543 42.662448,114.70774 42.662447,148.50006 c 2e-6,33.79198 13.558208,64.10077 34.298167,76.65165 H 79.0504 l 5.2e-4,-0.001 C 57.928973,213.49174 43.719232,182.85326 43.71923,148.50006 c 0,-34.3532 14.209742,-64.991689 35.33169,-76.650624 l -0.001,-0.0016 z" /></g></g><g
       id="g7"
       style="display:none"><path
         style="fill:none;fill-opacity:1;stroke:#ffffff;stroke-width:1.05772;stroke-dasharray:none;stroke-opacity:1"
         id="path3"
         d="M 78.795043,225.61304 A 54.11068,82.061989 0 0 1 43.191307,148.5 54.11068,82.061989 0 0 1 78.795043,71.386955" /><path
         d="M 118.49406,70.923836 C 96.8638,82.86335 82.61718,113.85591 82.617179,148.49998 c 2e-6,34.64407 14.246622,65.63663 35.876881,77.57614 l 0.5116,-0.92552 C 97.883667,213.49164 83.673964,182.85324 83.673962,148.49998 c 0,-34.35326 14.209704,-64.99166 35.331698,-76.650619 z"
         style="fill:#ffffff"
         id="path6" /><path
         style="fill:none;fill-opacity:1;stroke:#ffffff;stroke-width:1.065;stroke-dasharray:none;stroke-opacity:1"
         d="m 43.517946,148.58006 c 40.309405,0 42.810137,-0.15803 42.810137,-0.15803 z"
         id="path7" /></g><g
       id="layer2"
       transform="translate(68.648178,-2.2287852e-4)"><g
         id="g2"
         transform="translate(-50.095877,-1.8870241)"><path
           id="path1"
           style="display:inline;fill:#ffffff;fill-opacity:1;stroke-width:0.412683"
           d="M 155.09567,112.41671 A 87.559875,37.970261 0 0 0 67.536156,150.387 87.559875,37.970261 0 0 0 155.09567,188.3573 87.559875,37.970261 0 0 0 242.6557,150.387 87.559875,37.970261 0 0 0 155.09567,112.41671 Z m 0,7.5644 a 31.596867,30.405924 0 0 1 31.59704,30.40589 31.596867,30.405924 0 0 1 -31.59704,30.4059 31.596867,30.405924 0 0 1 -31.59652,-30.4059 31.596867,30.405924 0 0 1 31.59652,-30.40589 z" /></g></g></g></svg>
