<?xml version="1.0" encoding="UTF-8" standalone="no"?>
<!-- Created with Inkscape (http://www.inkscape.org/) -->

<svg
   width="175.11954mm"
   height="75.94059mm"
   viewBox="0 0 175.11954 75.94059"
   version="1.1"
   id="svg1"
   xml:space="preserve"
   sodipodi:docname="eye.svg"
   inkscape:version="1.3.2 (091e20ef0f, 2023-11-25, custom)"
   xmlns:inkscape="http://www.inkscape.org/namespaces/inkscape"
   xmlns:sodipodi="http://sodipodi.sourceforge.net/DTD/sodipodi-0.dtd"
   xmlns="http://www.w3.org/2000/svg"
   xmlns:svg="http://www.w3.org/2000/svg"><sodipodi:namedview
     id="namedview1"
     pagecolor="#000000"
     bordercolor="#000000"
     borderopacity="0.25"
     inkscape:showpageshadow="2"
     inkscape:pageopacity="0.0"
     inkscape:pagecheckerboard="0"
     inkscape:deskcolor="#d1d1d1"
     inkscape:document-units="mm"
     inkscape:zoom="0.73453373"
     inkscape:cx="331.50282"
     inkscape:cy="143.62853"
     inkscape:window-width="2540"
     inkscape:window-height="1399"
     inkscape:window-x="10"
     inkscape:window-y="31"
     inkscape:window-maximized="1"
     inkscape:current-layer="svg1" /><defs
     id="defs1" /><g
     id="layer2"
     transform="translate(-17.440279,-110.52969)"><g
       id="g2"
       transform="translate(-50.095877,-1.8870241)"><path
         id="path1"
         style="display:inline;fill:#ffffff;fill-opacity:1;stroke-width:0.412683"
         d="M 155.09567,112.41671 A 87.559875,37.970261 0 0 0 67.536156,150.387 87.559875,37.970261 0 0 0 155.09567,188.3573 87.559875,37.970261 0 0 0 242.6557,150.387 87.559875,37.970261 0 0 0 155.09567,112.41671 Z m 0,7.5644 a 31.596867,30.405924 0 0 1 31.59704,30.40589 31.596867,30.405924 0 0 1 -31.59704,30.4059 31.596867,30.405924 0 0 1 -31.59652,-30.4059 31.596867,30.405924 0 0 1 31.59652,-30.40589 z" /></g></g></svg>
