<?xml version="1.0" encoding="UTF-8" standalone="no"?>
<!-- Created with Inkscape (http://www.inkscape.org/) -->

<svg
   width="210mm"
   height="297mm"
   viewBox="0 0 210 297"
   version="1.1"
   id="svg1"
   xml:space="preserve"
   xmlns="http://www.w3.org/2000/svg"
   xmlns:svg="http://www.w3.org/2000/svg"><defs
     id="defs1" /><g
     id="layer2"><g
       id="g2"
       transform="translate(-50.095877,-1.8870241)"><path
         id="path1"
         style="display:inline;fill:#ffffff;fill-opacity:1;stroke-width:0.412683"
         d="M 155.09567,112.41671 A 87.559875,37.970261 0 0 0 67.536156,150.387 87.559875,37.970261 0 0 0 155.09567,188.3573 87.559875,37.970261 0 0 0 242.6557,150.387 87.559875,37.970261 0 0 0 155.09567,112.41671 Z m 0,7.5644 a 31.596867,30.405924 0 0 1 31.59704,30.40589 31.596867,30.405924 0 0 1 -31.59704,30.4059 31.596867,30.405924 0 0 1 -31.59652,-30.4059 31.596867,30.405924 0 0 1 31.59652,-30.40589 z" /></g></g></svg>
